<?xml version="1.0" encoding="UTF-8" standalone="no"?>
<!DOCTYPE svg  PUBLIC '-//W3C//DTD SVG 1.1//EN'  'http://www.w3.org/Graphics/SVG/1.1/DTD/svg11.dtd'>
<svg xmlns="http://www.w3.org/2000/svg">
<defs>
<font id="FaunaOne-Regular" horiz-adv-x="584">
<font-face underline-position="-50" font-weight="400" descent="-200" panose-1="2 0 5 3 2 0 0 2 0 4" units-per-em="1000" unicode-range="U+0020-00FE" bbox="-75 -243 991 991.032" x-height="572" underline-thickness="50" font-family="FaunaOne" ascent="800" cap-height="730"/>
<missing-glyph horiz-adv-x="1000"/>
<glyph glyph-name=".notdef" horiz-adv-x="1000"/>
<glyph glyph-name=".null" horiz-adv-x="0"/>
<glyph glyph-name="nonmarkingreturn" horiz-adv-x="1000"/>
<glyph glyph-name="space" horiz-adv-x="290" unicode=" "/>
<glyph glyph-name="exclam" horiz-adv-x="281" unicode="!" d="M103 8q-16 16 -16 36q0 22 16 38q15 16 37 16t38 -16t15 -38q1 -22 -15 -36q-16 -16 -38 -16t-37 16zM162 176h-43l-24 554h91z"/>
<glyph glyph-name="quotedbl" horiz-adv-x="396" unicode='&quot;' d="M301 490h-45l-18 240h82zM140 490h-45l-19 240h82z"/>
<glyph glyph-name="numbersign" horiz-adv-x="797" unicode="#" d="M308 506l-45 -249h227l44 249h-226zM624 567h113l-10 -61h-114l-44 -249h114l-11 -61h-115l-45 -255h-80l47 255h-227l-46 -255h-79l46 255h-114l11 61h114l45 249h-115l10 61h116l47 255h79l-47 -255h227l46 255h80z"/>
<glyph glyph-name="dollar" horiz-adv-x="545" unicode="$" d="M178 650q-38 -32 -38 -87t32 -87t92 -60l23 267h-6q-65 -1 -103 -33zM388 82q39 35 39 91q-1 56 -33 87t-93 58l-23 -271q71 0 110 35zM60 559q0 89 62 137t159 48h11l8 92h46l-8 -96q66 -9 148 -45l-25 -60q-72 35 -129 44l-24 -283q87 -37 110 -55q22 -18 40 -35 t27 -34q22 -43 22 -92q0 -90 -63 -142t-168 -52h-3l-8 -91h-46l8 95q-73 12 -122 64t-67 135l70 17q32 -130 124 -154l25 286q-118 51 -157 98q-40 51 -40 123z"/>
<glyph glyph-name="percent" horiz-adv-x="825" unicode="%" d="M676 303q-22 42 -62 42t-62 -39t-22 -110t24 -113t61 -42q84 0 84 152q0 68 -23 110zM504 342q38 52 108 52t111 -55t41 -149t-38 -146t-108 -52t-111 56t-41 149t38 145zM270 660q-22 42 -62 42t-62 -39t-22 -110t24 -113t61 -42q84 0 84 152q0 68 -23 110zM98 700 q38 52 108 51q70 0 111 -55q41 -56 41 -150t-38 -146t-108 -51q-70 -1 -111 55t-41 150t38 146zM323 -66h-62l240 861h62z"/>
<glyph glyph-name="ampersand" horiz-adv-x="665" unicode="&amp;" d="M465 219v124h-117q-193 0 -193 -148q1 -69 41 -109t114 -40t114 48q41 48 41 125zM514 627q-99 56 -180 56q-82 0 -122 -37q-40 -36 -40 -106t52 -107t125 -37h297l-3 -53h-106v-124q-1 -105 -61 -169t-168 -64t-170 55t-62 156q0 61 36 111t105 66q-61 20 -93 66 t-31 102q0 98 61 150q60 52 168 52t218 -57z"/>
<glyph glyph-name="quotesingle" horiz-adv-x="234" unicode="&apos;" d="M140 490h-45l-19 240h82z"/>
<glyph glyph-name="parenleft" horiz-adv-x="293" unicode="(" d="M126 365q0 -132 40 -230t108 -154v-55q-99 48 -163 160t-64 279q0 166 64 278t163 159v-54q-68 -56 -108 -154t-40 -229z"/>
<glyph glyph-name="parenright" horiz-adv-x="293" unicode=")" d="M246 365q0 -167 -64 -279t-163 -160v55q68 56 108 154t40 230q0 131 -40 229t-108 154v54q99 -47 163 -159t64 -278z"/>
<glyph glyph-name="asterisk" horiz-adv-x="538" unicode="*" d="M308 769l-14 -185l172 70l24 -73l-182 -45l119 -137l-63 -48l-96 153l-94 -153l-63 45l118 140l-181 45l24 73l172 -70l-14 185h78z"/>
<glyph glyph-name="plus" d="M324 397h164v-64h-164v-166h-65v166h-164v64h164v165h65v-165z" unicode="+"/>
<glyph glyph-name="comma" horiz-adv-x="262" unicode="," d="M155 97q27 -17 27 -47v-7q-1 -38 -20 -77l-8 -15q-15 -25 -41 -53l-7 -8l-11 -10l-21 -17l-25 28l12 12q20 27 26 42t6 33l-1 14q-4 8 -4 16q-2 6 -2 7l-3 10q-3 6 -3 11t-1 18q0 13 14 34l10 7l9 4l2 1q3 0 5 1l12 1h5q5 0 11 -2t8 -3z"/>
<glyph glyph-name="hyphen" horiz-adv-x="485" unicode="-" d="M418 287h-352v61h352v-61z"/>
<glyph glyph-name="period" horiz-adv-x="262" unicode="." d="M92 8q-16 16 -16 38t16 40q16 16 39 16t39 -16t16 -39t-16 -39t-40 -16q-22 0 -38 16z"/>
<glyph glyph-name="slash" horiz-adv-x="302" unicode="/" d="M62 -106h-62l240 881h62z"/>
<glyph glyph-name="zero" horiz-adv-x="661" unicode="0" d="M460 596q-50 88 -133 87q-85 0 -131 -82q-46 -83 -46 -231t50 -236t134 -88t130 82t46 230q0 150 -50 238zM138 646q66 98 188 98t192 -104q71 -104 71 -282t-66 -276q-65 -98 -187 -97t-194 105t-71 282q1 176 67 274z"/>
<glyph glyph-name="one" horiz-adv-x="472" unicode="1" d="M444 0h-383v53l151 8v593l-168 -40l-6 56l195 60h59v-669l152 -8v-53z"/>
<glyph glyph-name="two" horiz-adv-x="596" unicode="2" d="M149 528h-75q0 104 60 160t167 56t166 -52t59 -141q0 -62 -32 -116t-100 -125l-231 -249h371v-61h-472v60l278 296q58 60 82 104t24 97q0 54 -38 90t-108 36q-70 -1 -110 -41q-41 -40 -41 -114z"/>
<glyph glyph-name="three" horiz-adv-x="624" unicode="3" d="M275 396q73 0 125 37t52 107t-40 106q-40 38 -114 38q-72 0 -112 -42t-39 -110h-71q0 97 59 155t167 58t168 -53q61 -53 61 -150q1 -56 -31 -102t-93 -66q69 -16 105 -66t36 -111q0 -101 -67 -156t-181 -55t-173 58q-60 58 -60 149v6h72v-6q1 -63 41 -105t119 -42t125 40 t45 109q0 148 -193 148h-75l-3 53h77z"/>
<glyph glyph-name="four" horiz-adv-x="610" unicode="4" d="M385 227v432l-278 -432h278zM465 227h88v-55h-88v-172h-80v172h-366v47l324 511h122v-503z"/>
<glyph glyph-name="five" horiz-adv-x="608" unicode="5" d="M304 431q122 0 184 -62t63 -164t-65 -161t-188 -59q-101 -1 -161 61t-60 165h71q0 -75 40 -120t118 -45t122 43t44 125t-54 123q-54 40 -135 40t-164 -27l-19 14l34 366h379l-7 -61h-308l-24 -260q74 22 130 22z"/>
<glyph glyph-name="six" horiz-adv-x="629" unicode="6" d="M198 112q46 -66 124 -66t122 44t44 122t-44 116t-111 38q-97 0 -184 -70q3 -118 49 -184zM334 683q-89 1 -136 -85t-48 -240q88 69 189 69t165 -56t64 -161q0 -104 -66 -164t-182 -60q-118 0 -183 92t-65 272q0 179 68 287t193 108q104 1 160 -49t65 -134l-77 -16 q-14 137 -147 137z"/>
<glyph glyph-name="seven" horiz-adv-x="528" unicode="7" d="M481 730v-59l-296 -671h-79l296 669h-361l-5 61h445z"/>
<glyph glyph-name="eight" horiz-adv-x="637" unicode="8" d="M208 648q-38 -38 -39 -100q0 -62 40 -95q40 -34 117 -63q64 18 104 61t40 99t-39 96t-112 41q-73 -1 -111 -39zM482 186q0 49 -40 86q-15 14 -48 30t-111 45q-63 -17 -95 -60t-33 -107q0 -64 43 -101t121 -37q79 0 121 36t42 108zM549 554q0 -61 -38 -112t-114 -78 q78 -32 121 -72t43 -112q0 -96 -67 -146t-174 -49q-108 -1 -176 49t-68 146q0 140 147 193q-63 31 -98 73t-35 108q0 86 64 138t166 52q103 0 166 -52t63 -138z"/>
<glyph glyph-name="nine" horiz-adv-x="626" unicode="9" d="M430 619q-47 64 -126 64q-80 0 -122 -45t-42 -123q0 -77 42 -115t108 -38q98 0 188 72q-1 121 -48 185zM286 -14q-106 0 -164 58t-58 155h71q0 -69 40 -111t113 -42q90 0 139 84t52 243q-93 -72 -193 -72q-100 1 -163 55q-62 54 -62 160t64 168t181 61q117 1 183 -89 t66 -255q1 -199 -69 -307t-200 -108z"/>
<glyph glyph-name="colon" horiz-adv-x="262" unicode=":" d="M92 448q-16 16 -16 38t16 40q16 16 39 16t39 -16t16 -39t-16 -39t-40 -16q-22 0 -38 16zM92 8q-16 16 -16 38t16 40q16 16 39 16t39 -16t16 -39t-16 -39t-40 -16q-22 0 -38 16z"/>
<glyph glyph-name="semicolon" horiz-adv-x="262" unicode=";" d="M92 448q-16 16 -16 38t16 40q16 16 39 16t39 -16t16 -39t-16 -39t-40 -16q-22 0 -38 16zM121 101l5 1h5q10 0 14 -2l10 -3q2 -2 3 -2l5 -3l8 -9q10 -13 10 -19t1 -10v-11q-3 -32 -15 -66l-8 -16q-8 -15 -15 -25l-6 -9q-4 -5 -25 -29q-23 -23 -39 -35l-25 28l12 12 q15 20 28 46q4 18 4 29v7q-1 13 -9 35q-1 4 -3 10t-2 14v6q0 33 24 45q1 0 3 2q2 0 2 1l6 2q3 0 5 1h2z"/>
<glyph glyph-name="less" d="M489 502l-333 -138l333 -138v-72l-394 169v82l394 169v-72z" unicode="&lt;"/>
<glyph glyph-name="equal" d="M489 231h-394v65h394v-65zM489 434h-394v65h394v-65z" unicode="="/>
<glyph glyph-name="greater" d="M428 364l-333 138v72l394 -169v-82l-394 -169v72z" unicode="&gt;"/>
<glyph glyph-name="question" horiz-adv-x="457" unicode="?" d="M164 8q-16 16 -16 36q0 22 16 38t38 16t36 -16q16 -16 16 -38t-16 -36q-16 -16 -36 -16q-22 0 -38 16zM88 552h-69q1 86 53 139t144 53t142 -52q52 -52 52 -138t-64 -158q-26 -30 -53 -60q-64 -73 -64 -160h-58q0 104 58 178q24 30 49 58q58 67 58 142q0 54 -33 92 t-91 38t-90 -38q-34 -38 -34 -94z"/>
<glyph glyph-name="at" horiz-adv-x="1070" unicode="@" d="M529 532q-130 0 -130 -196q0 -70 24 -114t83 -44t107 63l3 75l10 190q-45 26 -97 26zM984 379q0 -128 -72 -208q-25 -27 -63 -44t-85 -17q-103 0 -135 96q-55 -82 -148 -82q-76 0 -115 62t-39 152q0 97 42 169q21 35 59 57t94 22q57 0 116 -36l36 36q27 0 25 -27 l-14 -246q-1 -11 -1 -20q0 -65 24 -97t69 -32q63 0 99 58t36 157t-38 179t-119 130q-82 50 -206 50t-215 -57q-176 -109 -176 -350q0 -217 156 -312q82 -50 200 -50q160 0 267 87l38 -50q-120 -98 -308 -98q-107 0 -190 34t-133 92q-103 118 -103 294q0 194 115 329 q57 66 149 104t204 38q112 1 195 -33t134 -92q102 -119 102 -295z"/>
<glyph glyph-name="A" horiz-adv-x="643" unicode="A" d="M324 655h-5l-121 -369h247zM77 0h-78v52l48 7l221 671h106l222 -671l48 -7v-52h-78q-27 0 -36 26l-65 198h-287l-65 -198q-9 -26 -36 -26z"/>
<glyph glyph-name="B" horiz-adv-x="644" unicode="B" d="M216 675v-620h152q149 0 149 145q0 69 -44 107t-125 38h-69v55h69q137 0 137 139q1 62 -39 99t-116 37h-114zM73 730h262q109 0 169 -52t60 -139q0 -64 -33 -108t-93 -56q74 -9 116 -57t42 -118q0 -200 -226 -200h-297v52l63 7v611l-63 8v52z"/>
<glyph glyph-name="C" horiz-adv-x="621" unicode="C" d="M340 683q-60 1 -102 -29t-62 -80q-35 -91 -35 -197q0 -111 35 -211q20 -54 62 -87t102 -33q143 0 179 199l69 -16q-53 -244 -249 -244q-65 -1 -115 25t-81 65q-30 39 -49 93q-33 92 -33 206q0 106 33 195q19 51 49 89t81 62t116 24q109 0 223 -57l-26 -60 q-101 56 -197 56z"/>
<glyph glyph-name="D" horiz-adv-x="711" unicode="D" d="M215 675v-620h136q109 0 167 80t57 230q1 150 -57 230t-167 80h-136zM73 730h274q149 0 228 -94t79 -271t-79 -271t-228 -94h-274v52l62 7v611l-62 8v52z"/>
<glyph glyph-name="E" horiz-adv-x="627" unicode="E" d="M73 730h441q30 0 30 -31v-133h-52l-7 109h-270v-277h284v-55h-284v-289h279l8 106h52v-129q0 -31 -31 -31h-450v52l62 7v611l-62 8v52z"/>
<glyph glyph-name="F" horiz-adv-x="585" unicode="F" d="M297 0h-224v52l62 7v611l-62 8v52h424q31 0 31 -31v-136h-53l-7 112h-253v-287h267v-55h-267v-274l82 -8v-51z"/>
<glyph glyph-name="G" horiz-adv-x="637" unicode="G" d="M335 -14q-59 0 -111 26t-82 64t-49 92q-32 91 -32 206q0 107 33 195q20 51 51 89t83 62t121 24q110 0 231 -57l-27 -60q-103 56 -204 56q-63 1 -107 -29t-64 -80q-37 -89 -37 -197q0 -163 54 -250q21 -34 59 -57t90 -23q74 -1 122 43t48 137v84l-132 7v58h172 q36 0 36 -30v-122q0 -133 -76 -188q-69 -50 -179 -50z"/>
<glyph glyph-name="H" horiz-adv-x="775" unicode="H" d="M701 0h-111q-31 0 -31 31v303h-344v-303q0 -31 -31 -31h-111v52l62 8v610l-62 8v52h111q31 0 31 -31v-303h344v303q0 31 31 31h111v-52l-62 -6v-612l62 -8v-52z"/>
<glyph glyph-name="I" horiz-adv-x="350" unicode="I" d="M277 0h-204v52l62 7v611l-62 8v52h204v-52l-62 -8v-611l62 -7v-52z"/>
<glyph glyph-name="J" horiz-adv-x="506" unicode="J" d="M411 699v-495q0 -218 -197 -218q-195 0 -195 218v30h72v-27q0 -160 122 -160q119 0 119 160v465l-95 8v50h141q33 0 33 -31z"/>
<glyph glyph-name="K" horiz-adv-x="647" unicode="K" d="M626 0h-84q-24 0 -37 20l-211 323h-79v-312q0 -31 -31 -31h-111v51l62 6v614l-62 7v52h111q31 0 31 -31v-303h83l198 313q14 21 38 21h83v-52l-55 -7l-197 -303l206 -309l55 -8v-51z"/>
<glyph glyph-name="L" horiz-adv-x="514" unicode="L" d="M215 54h229l8 116h52v-139q0 -31 -31 -31h-400v52l62 7v611l-62 8v52h224v-52l-82 -8v-616z"/>
<glyph glyph-name="M" horiz-adv-x="987" unicode="M" d="M911 0h-114q-30 0 -32 29l-38 592l-203 -518h-73l-192 518l-37 -592q-2 -29 -32 -29h-114v52l68 7l36 611l-56 8v52h147q26 0 35 -25l181 -506l193 506q9 25 35 25h147v-52l-56 -8l37 -611l68 -7v-52z"/>
<glyph glyph-name="N" horiz-adv-x="793" unicode="N" d="M668 0h-66q-26 0 -37 20l-350 583v-572q0 -31 -31 -31h-111v52l62 7v611l-62 8v52h128q24 0 37 -20l350 -584v573q0 31 30 31h112v-52l-62 -8v-670z"/>
<glyph glyph-name="O" horiz-adv-x="707" unicode="O" d="M510 600q-56 82 -156 83q-100 -1 -156 -83t-57 -235q1 -153 57 -235t156 -83q100 1 156 83t56 235t-56 235zM140 646q78 98 214 98t214 -98t78 -281t-78 -281t-214 -98t-214 98t-78 281t78 281z"/>
<glyph glyph-name="P" horiz-adv-x="619" unicode="P" d="M278 337h59q156 0 156 169t-156 169h-122v-616l87 -8v-51h-229v52l62 7v611l-62 8v52h264q115 0 175 -57t59 -169q0 -112 -59 -170q-59 -60 -175 -60h-59v63z"/>
<glyph glyph-name="Q" horiz-adv-x="710" unicode="Q" d="M510 600q-56 82 -156 83q-100 -1 -156 -83t-57 -235q1 -153 57 -235t156 -83q100 1 156 83t56 235t-56 235zM140 646q78 98 214 98t214 -98t78 -271t-62 -269t-175 -115l93 -185h-78l-89 181q-129 6 -201 104t-72 277q0 180 78 278z"/>
<glyph glyph-name="R" horiz-adv-x="667" unicode="R" d="M273 357h59q78 1 117 41t39 116t-39 119q-39 42 -117 42h-117v-616l87 -7v-52h-229v52l62 7v611l-62 8v52h259q114 0 174 -56t60 -160q0 -159 -137 -200q50 -23 72 -75l78 -180l63 -7v-52h-97q-26 0 -36 23l-87 205q-18 46 -44 60t-83 14h-22v55z"/>
<glyph glyph-name="S" horiz-adv-x="545" unicode="S" d="M461 635q-96 48 -170 48q-75 -1 -113 -33t-38 -88t38 -91q38 -37 92 -59t108 -47t91 -71q38 -46 38 -114q0 -90 -63 -142t-162 -52t-161 54t-83 149l70 17q41 -159 168 -159q72 0 112 35t39 98q0 70 -73 112q-32 18 -71 34t-79 36t-72 44t-52 63t-20 90q0 89 62 137 t158 48q98 0 206 -49z"/>
<glyph glyph-name="T" horiz-adv-x="558" unicode="T" d="M50 730h458q31 0 31 -31v-136h-52l-8 112h-160v-616l90 -7v-52h-260v52l90 7v616h-160l-8 -112h-52v136q0 31 31 31z"/>
<glyph glyph-name="U" horiz-adv-x="750" unicode="U" d="M635 266q0 -165 -81 -226q-69 -54 -180 -54q-107 0 -178 54q-81 61 -81 226v404l-62 8v52h109q33 0 33 -31v-430q0 -220 179 -220q181 0 181 220v430q0 31 33 31h109v-52l-62 -8v-404z"/>
<glyph glyph-name="V" horiz-adv-x="617" unicode="V" d="M536 730h84v-52l-47 -8l-213 -670h-104l-213 670l-46 8v52h84q26 0 34 -26l191 -623h4l192 623q8 26 34 26z"/>
<glyph glyph-name="W" horiz-adv-x="894" unicode="W" d="M814 730h83v-52l-46 -8l-146 -670h-100l-158 663l-158 -663h-100l-146 670l-46 8v52h84q28 0 34 -26l123 -617h5l150 617q6 26 34 26h40q28 0 34 -26l151 -617h4l123 617q6 26 35 26z"/>
<glyph glyph-name="X" horiz-adv-x="673" unicode="X" d="M537 730h86v-51l-59 -8l-180 -293l197 -319l59 -7v-52h-92q-24 0 -37 20l-179 289l-175 -288q-13 -21 -37 -21h-87v52l60 7l196 320l-180 292l-59 8v51h92q24 0 37 -21l162 -262l160 262q13 21 36 21z"/>
<glyph glyph-name="Y" horiz-adv-x="548" unicode="Y" d="M405 0h-260v52l90 7v200l-183 411l-55 8v52h92q27 0 37 -23l149 -360l147 360q10 23 37 23h91v-52l-55 -8l-180 -408v-203l90 -7v-52z"/>
<glyph glyph-name="Z" horiz-adv-x="601" unicode="Z" d="M544 167v-136q0 -31 -31 -31h-456v48l398 627h-318l-8 -112h-52v136q0 31 31 31h436v-48l-398 -627h338l7 112h53z"/>
<glyph glyph-name="bracketleft" horiz-adv-x="348" unicode="[" d="M320 740h-121v-751h121v-55h-201v861h201v-55z"/>
<glyph glyph-name="backslash" horiz-adv-x="302" unicode="\" d="M302 -106h-62l-240 881h62z"/>
<glyph glyph-name="bracketright" horiz-adv-x="348" unicode="]" d="M149 740h-121v55h201v-861h-201v55h121v751z"/>
<glyph glyph-name="asciicircum" d="M482 316h-72l-118 245l-118 -245h-71l148 302h82z" unicode="^"/>
<glyph glyph-name="underscore" horiz-adv-x="573" unicode="_" d="M506 -62h-440v62h440v-62z"/>
<glyph glyph-name="grave" horiz-adv-x="314" unicode="`" d="M241 637l-203 105l39 67l191 -126z"/>
<glyph glyph-name="a" horiz-adv-x="612" unicode="a" d="M403 283q-276 0 -276 -138q-1 -45 25 -71t72 -26q72 0 124 58t55 165v12zM403 99v14q-65 -127 -204 -127q-67 0 -107 41t-40 112q0 97 80 146t271 49v42q0 86 -31 118q-30 32 -100 32t-156 -48l-26 60q103 48 196 48q145 0 181 -102q15 -42 15 -102v-274q0 -55 42 -55 q14 0 41 6l9 -60q-39 -13 -76 -13q-95 0 -95 113z"/>
<glyph glyph-name="b" horiz-adv-x="626" unicode="b" d="M169 237q0 -100 41 -145t105 -45q83 1 127 65t44 174q0 95 -32 163q-36 77 -126 77t-159 -92v-197zM169 739v-245q77 92 184 92q56 0 99 -27t66 -71q47 -89 47 -202q0 -106 -55 -197q-27 -47 -78 -75q-52 -28 -108 -28t-94 12t-72 40q-68 57 -68 197v475l-62 8v52h111 q30 0 30 -31z"/>
<glyph glyph-name="c" horiz-adv-x="541" unicode="c" d="M298 -14q-62 0 -110 27t-74 73q-52 88 -52 204q0 148 77 231q27 29 71 47t100 18q91 0 181 -46l-26 -58q-76 43 -155 43q-50 1 -85 -21t-53 -58t-24 -75q-8 -38 -8 -81t7 -82t23 -77t49 -61t79 -23q102 0 141 104l64 -21q-55 -144 -205 -144z"/>
<glyph glyph-name="d" horiz-adv-x="665" unicode="d" d="M312 525q-162 0 -162 -239q0 -96 30 -163q16 -37 48 -57t74 -20q87 0 147 91v354q-62 34 -137 34zM389 770h109q32 0 30 -31v-631q0 -55 43 -55q18 0 42 6l9 -60q-39 -13 -77 -13q-86 0 -95 90q-66 -90 -165 -90q-57 0 -101 27t-66 71q-47 89 -47 202q0 116 43 201 q24 47 71 73t119 26t145 -37v161l-60 8v52z"/>
<glyph glyph-name="e" horiz-adv-x="591" unicode="e" d="M415 470q-40 54 -115 55q-75 0 -113 -57t-45 -143h313q0 91 -40 145zM534 269h-394q0 -111 56 -173q44 -49 120 -49t165 45l25 -58q-102 -48 -180 -48t-128 26t-80 68q-56 87 -56 197q0 128 54 215q28 44 76 69t114 25q108 0 168 -73t60 -195v-49z"/>
<glyph glyph-name="f" horiz-adv-x="358" unicode="f" d="M314 0h-248v52l70 7v458h-70v55h70q6 104 52 158t144 55q64 0 110 -26l-21 -59q-36 24 -91 24q-107 0 -115 -152h118v-55h-118v-458l99 -7v-52z"/>
<glyph glyph-name="g" horiz-adv-x="577" unicode="g" d="M372 5h-217q-36 -43 -36 -91t49 -72q49 -26 127 -26q178 0 178 110q0 39 -27 59t-74 20zM396 488q-36 40 -100 41q-64 0 -98 -38q-35 -39 -35 -109q-1 -70 37 -111t101 -41t97 39t35 109q-1 70 -37 110zM298 586q44 0 83 -14h158v-55h-78q46 -56 46 -146q1 -91 -53 -143 t-156 -52q-59 0 -105 23l-53 -54q-23 -23 -23 -47q0 -33 42 -33h218q73 1 121 -37t48 -103q0 -79 -64 -123t-182 -43q-118 -1 -186 35t-69 113q0 28 14 59t37 49q-51 19 -51 68t54 102l48 46q-58 57 -58 153q-1 96 53 149t156 53z"/>
<glyph glyph-name="h" horiz-adv-x="703" unicode="h" d="M491 99v308q-1 63 -23 91t-77 27q-95 0 -185 -74v-392l69 -7v-52h-218v52l70 7v651l-70 8v52h106q31 0 31 -30v-237q103 83 212 83q86 0 125 -44t39 -135v-299q0 -55 43 -55q15 0 42 6l9 -60q-41 -13 -84 -13q-89 0 -89 113z"/>
<glyph glyph-name="i" horiz-adv-x="337" unicode="i" d="M126 680q-16 16 -15 36q-1 20 15 36t36 15q20 1 36 -15q15 -16 15 -36t-15 -36q-16 -15 -36 -15t-36 15zM200 541v-433q0 -55 44 -55q17 0 41 6l10 -60q-41 -13 -84 -13q-89 0 -89 113v413l-60 8v52h108q30 0 30 -31z"/>
<glyph glyph-name="j" horiz-adv-x="305" unicode="j" d="M200 541v-580q0 -116 -43 -159t-126 -43q-57 0 -106 21l19 58q38 -18 82 -18t70 30t26 113v549l-60 8v52h108q30 0 30 -31zM126 680q-16 16 -15 36q-1 20 15 36t36 15q20 1 36 -15q15 -16 15 -36t-15 -36q-16 -15 -36 -15t-36 15z"/>
<glyph glyph-name="k" horiz-adv-x="603" unicode="k" d="M491 75q17 -26 41 -26t43 6l9 -56q-32 -13 -68 -13q-53 0 -84 49l-158 246h-68v-222l80 -7v-52h-229v52l70 7v651l-70 8v52h118q31 0 31 -31v-404h79l151 217q13 20 37 20h81v-52l-63 -8l-148 -209z"/>
<glyph glyph-name="l" horiz-adv-x="328" unicode="l" d="M191 739v-631q0 -55 43 -55q15 0 42 6l9 -60q-39 -13 -77 -13q-96 0 -96 113v611l-60 8v52h109q30 0 30 -31z"/>
<glyph glyph-name="m" horiz-adv-x="1029" unicode="m" d="M481 29v378q-1 63 -23 91t-77 27q-84 0 -166 -74v-392l70 -7v-52h-219v52l70 7v453l-70 8v52h106q31 0 31 -30v-39q95 83 199 83t140 -77q94 77 186 77t130 -44q39 -44 39 -135v-299q0 -55 43 -55q26 0 42 6l9 -60q-39 -13 -77 -13q-96 0 -96 113v308q0 63 -22 91t-78 27 q-81 0 -162 -66q4 -32 4 -52v-348l69 -7v-52h-117q-31 0 -31 29z"/>
<glyph glyph-name="n" horiz-adv-x="713" unicode="n" d="M500 99v308q0 63 -22 91t-78 27q-95 0 -185 -74v-392l70 -7v-52h-219v52l70 7v453l-70 8v52h106q31 0 31 -30v-39q105 83 212 83q86 0 125 -44t39 -135v-299q0 -55 43 -55q18 0 42 6l9 -60q-39 -13 -77 -13q-96 0 -96 113z"/>
<glyph glyph-name="o" horiz-adv-x="621" unicode="o" d="M434 460q-47 66 -127 65q-79 0 -123 -61t-44 -173t48 -178t126 -66q79 0 123 61q44 62 44 174t-47 178zM126 509q64 77 180 77t185 -82t69 -224q0 -140 -64 -217t-180 -77t-186 82q-68 82 -68 224q0 140 64 217z"/>
<glyph glyph-name="p" horiz-adv-x="650" unicode="p" d="M52 572h106q31 0 31 -30v-63q81 107 187 107q53 0 94 -27t64 -71q45 -88 45 -202q0 -116 -43 -201q-24 -47 -71 -73t-119 -26t-145 36v-249l-79 -6v745l-70 8v52zM339 47q161 0 161 239q0 96 -30 163q-16 37 -48 57t-74 20q-78 0 -147 -92v-353q62 -34 138 -34z"/>
<glyph glyph-name="q" horiz-adv-x="654" unicode="q" d="M448 335q0 101 -40 145t-102 45q-80 -1 -123 -65t-43 -174q0 -94 32 -163q16 -37 48 -57t76 -20q84 0 152 91v198zM269 -14q-55 0 -97 27t-64 71q-46 90 -46 202q0 105 53 196q27 48 77 76t115 28q125 0 174 -111v67q0 30 31 30h85v-52l-70 -8v-745l-79 6v304 q-74 -91 -179 -91z"/>
<glyph glyph-name="r" horiz-adv-x="418" unicode="r" d="M215 280v-221l100 -7v-52h-249v52l70 7v453l-70 8v52h106q31 0 31 -31v-124q27 69 81 117t132 52v-69q-84 -3 -142 -68t-59 -169z"/>
<glyph glyph-name="s" horiz-adv-x="505" unicode="s" d="M417 488q-78 37 -143 37q-64 0 -96 -23q-32 -24 -32 -64t32 -66t78 -45q46 -18 92 -38t77 -57q32 -37 32 -91q1 -73 -53 -114t-142 -41t-142 42t-73 121l69 16q35 -120 140 -120q59 0 91 25q32 24 32 66t-32 68t-78 44t-92 38t-78 58t-32 92q0 70 54 110q53 40 141 40 t180 -40z"/>
<glyph glyph-name="t" horiz-adv-x="353" unicode="t" d="M39 517v55h87v130l79 18v-148h109v-55h-109v-409q0 -54 44 -54q29 0 56 11l9 -61q-46 -18 -94 -18t-71 28t-23 87v416h-87z"/>
<glyph glyph-name="u" horiz-adv-x="701" unicode="u" d="M564 541v-433q0 -55 44 -55q25 0 41 6l10 -60q-41 -13 -77 -13q-81 0 -94 77q-104 -77 -198 -77t-134 44q-39 44 -39 135v347l-70 8v52h115q34 0 34 -31v-376q0 -63 22 -91t78 -28q95 0 190 78v388l-60 8v52h108q30 0 30 -31z"/>
<glyph glyph-name="v" horiz-adv-x="567" unicode="v" d="M470 572h79v-52l-49 -8l-176 -512h-87l-218 572h79l182 -491l153 465q9 26 37 26z"/>
<glyph glyph-name="w" horiz-adv-x="799" unicode="w" d="M701 572h79v-52l-49 -8l-145 -512h-88l-115 475l-113 -475h-89l-162 572h77l133 -491l118 491h73l118 -491l126 465q8 26 37 26z"/>
<glyph glyph-name="x" horiz-adv-x="545" unicode="x" d="M454 572h66v-52l-43 -7l-157 -229l210 -284h-85l-170 230l-144 -210q-14 -20 -38 -20h-76v52l52 7l160 234l-205 279h85l167 -227l139 206q15 21 39 21z"/>
<glyph glyph-name="y" horiz-adv-x="569" unicode="y" d="M228 -212q-34 -30 -90 -30t-102 27l22 58q37 -21 74 -21q59 0 82 63l32 91l-227 596h80l182 -490l152 464q9 26 37 26h80v-53l-49 -8l-212 -617q-27 -76 -61 -106z"/>
<glyph glyph-name="z" horiz-adv-x="570" unicode="z" d="M508 168v-137q0 -31 -30 -31h-416v52l340 465h-269l-8 -113h-49v137q0 31 31 31h387v-52l-340 -465h297l8 113h49z"/>
<glyph glyph-name="braceleft" horiz-adv-x="349" unicode="{" d="M195 587l8 -151q0 -30 -15 -48t-39 -19v-8q24 -1 39 -19t15 -48l-8 -151q0 -156 125 -156v-55q-207 0 -207 203l8 152q-1 27 -23 39t-51 13v52q29 1 51 13t23 39l-8 152q0 203 207 203v-55q-125 0 -125 -156z"/>
<glyph glyph-name="bar" horiz-adv-x="321" unicode="|" d="M202 -106h-83v881h83v-881z"/>
<glyph glyph-name="braceright" horiz-adv-x="349" unicode="}" d="M154 143l-8 151q0 30 15 48t39 19v8q-24 1 -39 19t-15 48l8 151q0 156 -125 156v55q207 0 207 -203l-8 -152q0 -27 22 -39t52 -13v-52q-30 -1 -52 -13t-22 -39l8 -152q0 -203 -207 -203v55q125 0 125 156z"/>
<glyph glyph-name="asciitilde" d="M95 397q34 -24 77 -24q44 -1 120 21t118 22t79 -19v-64q-37 21 -79 21t-118 -22t-118 -21q-42 0 -79 22v64z" unicode="~"/>
<glyph glyph-name="nbspace" horiz-adv-x="290" unicode=" "/>
<glyph glyph-name="exclamdown" horiz-adv-x="281" unicode="¡" d="M103 496q-16 16 -16 38t16 36q15 16 37 16t38 -16t15 -36q1 -22 -15 -38t-38 -16t-37 16zM119 402h43l24 -554h-91z"/>
<glyph glyph-name="cent" horiz-adv-x="541" unicode="¢" d="M147 449q-7 -37 -7 -77t6 -75t18 -70t36 -61t59 -34l41 473q-47 -3 -80 -25q-34 -22 -50 -58t-23 -73zM72 272q-10 48 -10 94t7 86t25 78q18 40 44 69t69 47t98 20l15 170h46l-15 -172q64 -7 140 -44l-26 -58q-61 34 -119 41l-41 -476q96 3 134 104l64 -21 q-55 -144 -204 -144l-14 -171h-46l15 174q-52 9 -90 39t-60 73t-32 91z"/>
<glyph glyph-name="sterling" horiz-adv-x="613" unicode="£" d="M411 319h-200v-155q0 -42 -10 -64t-33 -45h397v-55h-485v46q51 42 51 108v165h-92v46h92v154q0 109 49 167t162 58q175 0 216 -181l-71 -17q-34 137 -146 137q-71 1 -101 -41t-29 -123v-154h200v-46z"/>
<glyph glyph-name="currency" horiz-adv-x="624" unicode="¤" d="M212 466q-42 -42 -42 -102t42 -100q42 -42 100 -42t100 42t42 100q0 60 -42 102t-100 41q-58 1 -100 -41zM482 488q40 -56 40 -124t-41 -123l115 -114l-46 -46l-115 114q-54 -40 -123 -40t-123 40l-115 -114l-46 46l114 114q-40 57 -40 125t40 122l-114 115l46 46 l114 -115q55 41 124 41t124 -41l114 115l46 -46z"/>
<glyph glyph-name="yen" horiz-adv-x="548" unicode="¥" d="M315 0h-80v249h-196v46h180l-44 101h-135v46h114l-127 288h89l159 -383l158 383h90l-128 -288h116v-46h-136l-45 -101h181v-46h-196v-249z"/>
<glyph glyph-name="brokenbar" horiz-adv-x="321" unicode="¦" d="M202 -106h-83v327h83v-327zM202 447h-83v328h83v-328z"/>
<glyph glyph-name="section" horiz-adv-x="527" unicode="§" d="M346 176q31 30 31 74t-24 70t-69 48q-7 2 -24 2q-52 0 -82 -30t-29 -74q-1 -44 23 -70t68 -48q8 -2 26 -2q49 0 80 30zM423 357q33 -42 33 -101t-30 -98t-82 -57q59 -29 92 -67t33 -102q1 -82 -57 -128t-148 -47q-90 0 -145 47t-72 134l69 17q34 -138 144 -138 q62 0 96 30q34 31 34 79t-33 78t-80 48q-47 20 -94 42t-80 64t-33 101t30 98t83 57q-59 29 -92 68t-33 102q0 84 58 130t146 46q89 0 144 -48t74 -133l-70 -17q-32 136 -142 136q-63 0 -97 -30t-34 -77t33 -77q34 -30 80 -50t93 -42t80 -65z"/>
<glyph glyph-name="dieresis" horiz-adv-x="482" unicode="¨" d="M293 716q0 20 15 35t35 15t35 -15t15 -35t-15 -35t-35 -15t-35 15t-15 35zM88 716q0 20 15 35t35 15t35 -15t15 -35t-15 -35t-35 -15t-35 15t-15 35z"/>
<glyph glyph-name="copyright" horiz-adv-x="720" unicode="©" d="M363 730q-57 0 -81 -48t-23 -113q0 -60 19 -113q10 -28 32 -44t51 -17q76 0 92 106l44 -10q-29 -133 -136 -133q-56 0 -92 34t-48 78t-12 89q-1 45 7 78t24 63t48 49q32 18 86 18t110 -31l-16 -36q-62 30 -105 30zM360 298q113 0 185 76t72 190q1 114 -67 186t-190 73 q-122 -1 -190 -73t-67 -186q0 -114 72 -190t185 -76zM360 856q141 0 218 -82t77 -208q-1 -128 -83 -214t-212 -87q-130 1 -212 87t-83 214q0 128 77 208q77 82 218 82z"/>
<glyph glyph-name="ordfeminine" horiz-adv-x="409" unicode="ª" d="M261 539q-161 0 -161 -81q0 -57 56 -57q46 0 76 38t29 100zM39 452q1 64 53 96t169 32v24q0 48 -18 68q-17 20 -61 20t-98 -32l-21 48q69 33 132 33t97 -30t34 -103v-169q0 -32 26 -32q16 0 26 3l8 -50q-30 -9 -60 -9t-46 18t-18 58q-41 -76 -127 -76q-43 1 -69 27 t-27 74z"/>
<glyph glyph-name="guillemotleft" horiz-adv-x="446" unicode="«" d="M357 497l32 -23l-94 -153l94 -153l-32 -21l-132 151v46zM179 497l32 -23l-93 -153l93 -153l-32 -21l-132 151v46z"/>
<glyph glyph-name="logicalnot" d="M489 195h-60v138h-334v64h394v-202z" unicode="¬"/>
<glyph glyph-name="registered" horiz-adv-x="720" unicode="®" d="M353 527h-12v35h30q80 0 80 81q-1 39 -21 61t-59 22h-60v-327h45v-33h-126v34h31v326h-31v34h141q62 0 95 -30t33 -87q0 -86 -72 -107q27 -14 38 -41l52 -129h-54l-48 125q-9 22 -21 29t-41 7zM360 298q113 0 185 76t72 190q1 114 -67 186t-190 73q-122 -1 -190 -73 t-67 -186q0 -114 72 -190t185 -76zM360 856q141 0 218 -82t77 -208q-1 -128 -83 -214t-212 -87q-130 1 -212 87t-83 214q0 128 77 208q77 82 218 82z"/>
<glyph glyph-name="macron" horiz-adv-x="354" unicode="¯" d="M304 693h-254v67h254v-67z"/>
<glyph glyph-name="degree" horiz-adv-x="437" unicode="°" d="M302 651q-32 40 -86 40q-54 1 -84 -37t-29 -106q0 -68 32 -108t83 -39q115 0 115 145q1 65 -31 105zM84 691q46 50 130 50q84 1 135 -53q50 -54 50 -146q-1 -92 -47 -141q-46 -50 -130 -50q-84 -1 -134 53t-50 146t46 141z"/>
<glyph glyph-name="plusminus" d="M489 0h-394v64h394v-64zM324 397h164v-64h-164v-166h-65v166h-164v64h164v165h65v-165z" unicode="±"/>
<glyph glyph-name="twosuperior" horiz-adv-x="382" unicode="²" d="M121 629h-61q0 59 34 91t96 31q62 0 96 -28t35 -81q1 -34 -21 -66t-62 -71l-99 -100h188v-48h-272v45l139 139q35 35 49 56t14 47t-17 42t-49 16t-51 -19t-19 -54z"/>
<glyph glyph-name="threesuperior" horiz-adv-x="396" unicode="³" d="M166 571q94 0 94 70q0 28 -18 45t-52 17q-32 0 -50 -20t-19 -54h-58q1 55 35 89t95 34t96 -28t35 -82q0 -28 -16 -52t-47 -36q35 -10 53 -35t19 -55q0 -54 -37 -84t-102 -30q-64 0 -100 34t-36 89h59q0 -35 19 -55q20 -20 56 -20t56 17t21 48q0 71 -101 71h-30l-2 37h30z "/>
<glyph glyph-name="acute" horiz-adv-x="314" unicode="´" d="M280 742l-202 -105l-28 46l192 126z"/>
<glyph glyph-name="mu" horiz-adv-x="703" unicode="µ" d="M566 541v-433q0 -55 43 -55q15 0 42 6l9 -60q-41 -13 -77 -13q-81 0 -94 77q-104 -77 -196 -77q-71 0 -101 38v-251l-73 -6v805h45q33 0 33 -31v-376q0 -63 23 -91t78 -28q94 0 189 77v449h49q30 0 30 -31z"/>
<glyph glyph-name="paragraph" horiz-adv-x="566" unicode="¶" d="M350 274h-51q-103 0 -165 64t-63 164q1 100 63 164t165 64h101q31 0 31 -31v-640l62 -7v-52h-249v51l106 8v215z"/>
<glyph glyph-name="periodcentered" horiz-adv-x="262" unicode="·" d="M76 308q0 22 16 38t39 17q23 -1 39 -17t16 -38t-16 -38t-40 -17q-22 1 -38 17t-16 38z"/>
<glyph glyph-name="cedilla" horiz-adv-x="301" unicode="¸" d="M202 -86q29 -20 29 -62q-1 -43 -29 -68t-73 -25t-71 26t-25 69h52q-1 -20 11 -34t34 -14t37 14q14 14 14 37q0 41 -53 51l-49 10l19 82h31l-12 -57q56 -9 85 -29z"/>
<glyph glyph-name="onesuperior" horiz-adv-x="322" unicode="¹" d="M202 357h-65v328l-89 -19l-5 46l108 32h51v-387z"/>
<glyph glyph-name="ordmasculine" horiz-adv-x="407" unicode="º" d="M276 651q-28 40 -75 40q-47 1 -73 -37t-26 -106t28 -108t73 -39q101 0 101 145q0 65 -28 105zM80 691q42 50 120 50q78 1 123 -53q46 -54 46 -146q-1 -92 -43 -141q-42 -50 -120 -50q-78 -1 -122 53q-46 54 -46 146t42 141z"/>
<glyph glyph-name="guillemotright" horiz-adv-x="446" unicode="»" d="M47 474l33 23l131 -153v-46l-131 -151l-33 21l94 153zM225 474l32 23l132 -153v-46l-132 -151l-32 21l94 153z"/>
<glyph glyph-name="onequarter" horiz-adv-x="825" unicode="¼" d="M662 126v200l-127 -200h127zM727 126h45v-42h-45v-84h-65v84h-196v38l164 265h97v-261zM202 357h-65v328l-89 -19l-5 46l108 32h51v-387zM291 -66h-62l240 861h62z"/>
<glyph glyph-name="onehalf" horiz-adv-x="825" unicode="½" d="M564 272h-61q1 58 35 90t96 32t96 -28t34 -81q0 -35 -22 -67t-61 -70l-99 -100h188v-48h-272v45l139 139q35 35 49 56q14 20 14 46t-17 42t-49 17q-32 0 -51 -19t-19 -54zM202 357h-65v328l-89 -19l-5 46l108 32h51v-387zM281 -66h-62l240 861h62z"/>
<glyph glyph-name="threequarters" horiz-adv-x="825" unicode="¾" d="M662 126v200l-127 -200h127zM727 126h45v-42h-45v-84h-65v84h-196v38l164 265h97v-261zM166 571q94 0 94 70q0 28 -18 45t-52 17q-32 0 -50 -20t-19 -54h-58q1 55 35 89t95 34t96 -28t35 -82q0 -28 -16 -52t-47 -36q35 -10 53 -35t19 -55q0 -54 -37 -84t-102 -30 q-64 0 -100 34t-36 89h59q0 -35 19 -55q20 -20 56 -20t56 17t21 48q0 71 -101 71h-30l-2 37h30zM337 -66h-62l240 861h62z"/>
<glyph glyph-name="questiondown" horiz-adv-x="457" unicode="¿" d="M293 570q16 -16 16 -36q0 -22 -16 -38q-15 -16 -37 -16t-38 16t-15 38q-1 22 15 36q16 16 38 16t37 -16zM369 26h69q0 -86 -52 -139t-144 -53t-144 52t-51 138q0 86 63 158l54 60q64 73 64 160h58q0 -104 -58 -178q-24 -30 -48 -58q-59 -67 -59 -142q0 -54 33 -92 q32 -38 90 -38t92 38t33 94z"/>
<glyph glyph-name="Agrave" horiz-adv-x="643" unicode="À" d="M409 795l-203 105l39 67l191 -126zM324 655h-5l-121 -369h247zM77 0h-78v52l48 7l221 671h106l222 -671l48 -7v-52h-78q-27 0 -36 26l-65 198h-287l-65 -198q-9 -26 -36 -26z"/>
<glyph glyph-name="Aacute" horiz-adv-x="643" unicode="Á" d="M436 900l-202 -105l-28 46l192 126zM324 655h-5l-121 -369h247zM77 0h-78v52l48 7l221 671h106l222 -671l48 -7v-52h-78q-27 0 -36 26l-65 198h-287l-65 -198q-9 -26 -36 -26z"/>
<glyph glyph-name="Acircumflex" horiz-adv-x="643" unicode="Â" d="M465 825l-32 -33l-112 98l-111 -98l-32 33l122 143h42zM324 655h-5l-121 -369h247zM77 0h-78v52l48 7l221 671h106l222 -671l48 -7v-52h-78q-27 0 -36 26l-65 198h-287l-65 -198q-9 -26 -36 -26z"/>
<glyph glyph-name="Atilde" horiz-adv-x="643" unicode="Ã" d="M392 834q-24 0 -72 18t-62 18q-35 0 -47 -43l-47 14q26 95 86 95q24 0 72 -18t63 -18q33 0 46 44l47 -15q-24 -95 -86 -95zM324 655h-5l-121 -369h247zM77 0h-78v52l48 7l221 671h106l222 -671l48 -7v-52h-78q-27 0 -36 26l-65 198h-287l-65 -198q-9 -26 -36 -26z"/>
<glyph glyph-name="Adieresis" horiz-adv-x="643" unicode="Ä" d="M373 874q0 20 15 35t35 15t35 -15t15 -35t-15 -35t-35 -15t-35 15t-15 35zM168 874q0 20 15 35t35 15t35 -15t15 -35t-15 -35t-35 -15t-35 15t-15 35zM324 655h-5l-121 -369h247zM77 0h-78v52l48 7l221 671h106l222 -671l48 -7v-52h-78q-27 0 -36 26l-65 198h-287 l-65 -198q-9 -26 -36 -26z"/>
<glyph glyph-name="Aring" horiz-adv-x="643" unicode="Å" d="M358 927q-15 18 -39 18q-23 0 -37 -17q-14 -18 -14 -44t14 -44t40 -19q24 0 38 17t13 44q0 27 -15 45zM238 962q28 30 80 29q52 1 84 -31t31 -79q1 -47 -29 -76t-82 -29t-82 31t-30 78t28 77zM324 655h-5l-121 -369h247zM77 0h-78v52l48 7l221 671h106l222 -671l48 -7 v-52h-78q-27 0 -36 26l-65 198h-287l-65 -198q-9 -26 -36 -26z"/>
<glyph glyph-name="AE" horiz-adv-x="932" unicode="Æ" d="M439 675h-115l-101 -309h216v309zM818 730q31 0 31 -31v-133h-52l-8 109h-270v-309h284v-55h-284v-257h280l8 106h52v-129q0 -31 -31 -31h-451v52l62 7v252h-234l-92 -285q-9 -26 -36 -26h-78v52l48 7l221 671h550z"/>
<glyph glyph-name="Ccedilla" horiz-adv-x="621" unicode="Ç" d="M340 683q-60 1 -102 -29t-62 -80q-35 -91 -35 -197q0 -111 35 -211q20 -54 62 -87t102 -33q143 0 179 199l69 -16q-53 -244 -249 -244h-5l-9 -42q56 -9 85 -29t29 -62q-1 -43 -29 -68t-73 -25t-71 26t-25 69h52q-1 -20 11 -34t34 -14t37 14q14 14 14 37q0 41 -53 51 l-49 10l16 69q-70 7 -120 47t-75 99q-47 111 -47 241q0 106 33 195q19 51 49 89t81 62t116 24q109 0 223 -57l-26 -60q-101 56 -197 56z"/>
<glyph glyph-name="Egrave" horiz-adv-x="627" unicode="È" d="M395 795l-203 105l39 67l191 -126zM73 730h441q30 0 30 -31v-133h-52l-7 109h-270v-277h284v-55h-284v-289h279l8 106h52v-129q0 -31 -31 -31h-450v52l62 7v611l-62 8v52z"/>
<glyph glyph-name="Eacute" horiz-adv-x="627" unicode="É" d="M459 900l-202 -105l-28 46l192 126zM73 730h441q30 0 30 -31v-133h-52l-7 109h-270v-277h284v-55h-284v-289h279l8 106h52v-129q0 -31 -31 -31h-450v52l62 7v611l-62 8v52z"/>
<glyph glyph-name="Ecircumflex" horiz-adv-x="627" unicode="Ê" d="M478 825l-32 -33l-112 98l-111 -98l-32 33l122 143h42zM73 730h441q30 0 30 -31v-133h-52l-7 109h-270v-277h284v-55h-284v-289h279l8 106h52v-129q0 -31 -31 -31h-450v52l62 7v611l-62 8v52z"/>
<glyph glyph-name="Edieresis" horiz-adv-x="627" unicode="Ë" d="M377 874q0 20 15 35t35 15t35 -15t15 -35t-15 -35t-35 -15t-35 15t-15 35zM172 874q0 20 15 35t35 15t35 -15t15 -35t-15 -35t-35 -15t-35 15t-15 35zM73 730h441q30 0 30 -31v-133h-52l-7 109h-270v-277h284v-55h-284v-289h279l8 106h52v-129q0 -31 -31 -31h-450v52 l62 7v611l-62 8v52z"/>
<glyph glyph-name="Igrave" horiz-adv-x="350" unicode="Ì" d="M279 795l-203 105l39 67l191 -126zM277 0h-204v52l62 7v611l-62 8v52h204v-52l-62 -8v-611l62 -7v-52z"/>
<glyph glyph-name="Iacute" horiz-adv-x="350" unicode="Í" d="M307 900l-202 -105l-28 46l192 126zM277 0h-204v52l62 7v611l-62 8v52h204v-52l-62 -8v-611l62 -7v-52z"/>
<glyph glyph-name="Icircumflex" horiz-adv-x="350" unicode="Î" d="M333 825l-32 -33l-112 98l-111 -98l-32 33l122 143h42zM277 0h-204v52l62 7v611l-62 8v52h204v-52l-62 -8v-611l62 -7v-52z"/>
<glyph glyph-name="Idieresis" horiz-adv-x="350" unicode="Ï" d="M227 874q0 20 15 35t35 15t35 -15t15 -35t-15 -35t-35 -15t-35 15t-15 35zM22 874q0 20 15 35t35 15t35 -15t15 -35t-15 -35t-35 -15t-35 15t-15 35zM277 0h-204v52l62 7v611l-62 8v52h204v-52l-62 -8v-611l62 -7v-52z"/>
<glyph glyph-name="Eth" horiz-adv-x="718" unicode="Ð" d="M385 337h-170v-282h136q109 0 167 80t57 230q1 150 -57 230t-167 80h-136v-283h170v-55zM73 730h274q149 0 228 -94t79 -271t-79 -271t-228 -94h-274v52l62 7v278h-95v55h95v278l-62 8v52z"/>
<glyph glyph-name="Ntilde" horiz-adv-x="793" unicode="Ñ" d="M477 834q-25 0 -73 18t-61 18q-35 0 -47 -43l-47 14q26 95 86 95q25 0 73 -18t62 -18q33 0 46 44l47 -15q-24 -95 -86 -95zM668 0h-66q-26 0 -37 20l-350 583v-572q0 -31 -31 -31h-111v52l62 7v611l-62 8v52h128q24 0 37 -20l350 -584v573q0 31 30 31h112v-52l-62 -8 v-670z"/>
<glyph glyph-name="Ograve" horiz-adv-x="710" unicode="Ò" d="M451 795l-203 105l39 67l191 -126zM510 600q-56 82 -156 83q-100 -1 -156 -83t-57 -235q1 -153 57 -235t156 -83q100 1 156 83t56 235t-56 235zM140 646q78 98 214 98t214 -98t78 -281t-78 -281t-214 -98t-214 98t-78 281t78 281z"/>
<glyph glyph-name="Oacute" horiz-adv-x="710" unicode="Ó" d="M479 900l-202 -105l-28 46l192 126zM510 600q-56 82 -156 83q-100 -1 -156 -83t-57 -235q1 -153 57 -235t156 -83q100 1 156 83t56 235t-56 235zM140 646q78 98 214 98t214 -98t78 -281t-78 -281t-214 -98t-214 98t-78 281t78 281z"/>
<glyph glyph-name="Ocircumflex" horiz-adv-x="710" unicode="Ô" d="M505 825l-32 -33l-112 98l-111 -98l-32 33l122 143h42zM510 600q-56 82 -156 83q-100 -1 -156 -83t-57 -235q1 -153 57 -235t156 -83q100 1 156 83t56 235t-56 235zM140 646q78 98 214 98t214 -98t78 -281t-78 -281t-214 -98t-214 98t-78 281t78 281z"/>
<glyph glyph-name="Otilde" horiz-adv-x="710" unicode="Õ" d="M432 834q-24 0 -72 18t-62 18q-35 0 -47 -43l-47 14q26 95 86 95q24 0 72 -18t63 -18q33 0 46 44l47 -15q-24 -95 -86 -95zM510 600q-56 82 -156 83q-100 -1 -156 -83t-57 -235q1 -153 57 -235t156 -83q100 1 156 83t56 235t-56 235zM140 646q78 98 214 98t214 -98 t78 -281t-78 -281t-214 -98t-214 98t-78 281t78 281z"/>
<glyph glyph-name="Odieresis" horiz-adv-x="710" unicode="Ö" d="M407 874q0 20 15 35t35 15t35 -15t15 -35t-15 -35t-35 -15t-35 15t-15 35zM202 874q0 20 15 35t35 15t35 -15t15 -35t-15 -35t-35 -15t-35 15t-15 35zM510 600q-56 82 -156 83q-100 -1 -156 -83t-57 -235q1 -153 57 -235t156 -83q100 1 156 83t56 235t-56 235zM140 646 q78 98 214 98t214 -98t78 -281t-78 -281t-214 -98t-214 98t-78 281t78 281z"/>
<glyph glyph-name="multiply" d="M472 499l-134 -134l134 -135l-46 -45l-134 135l-134 -135l-45 45l133 135l-133 134l45 45l134 -134l134 134z" unicode="×"/>
<glyph glyph-name="Oslash" horiz-adv-x="710" unicode="Ø" d="M566 365q0 209 -103 283l-162 -595q24 -6 52 -6q101 1 157 83t56 235zM353 683q-99 -1 -155 -83t-57 -235q0 -211 105 -286l162 596q-27 8 -55 8zM62 365q0 183 78 281t213 98q35 0 72 -8l19 69h62l-24 -89q78 -38 121 -128t43 -223q0 -183 -78 -281t-215 -98 q-31 0 -68 7l-19 -69h-62l24 88q-80 38 -123 128t-43 225z"/>
<glyph glyph-name="Ugrave" horiz-adv-x="750" unicode="Ù" d="M462 795l-203 105l39 67l191 -126zM635 266q0 -165 -81 -226q-69 -54 -180 -54q-107 0 -178 54q-81 61 -81 226v404l-62 8v52h109q33 0 33 -31v-430q0 -220 179 -220q181 0 181 220v430q0 31 33 31h109v-52l-62 -8v-404z"/>
<glyph glyph-name="Uacute" horiz-adv-x="750" unicode="Ú" d="M510 900l-202 -105l-28 46l192 126zM635 266q0 -165 -81 -226q-69 -54 -180 -54q-107 0 -178 54q-81 61 -81 226v404l-62 8v52h109q33 0 33 -31v-430q0 -220 179 -220q181 0 181 220v430q0 31 33 31h109v-52l-62 -8v-404z"/>
<glyph glyph-name="Ucircumflex" horiz-adv-x="750" unicode="Û" d="M516 825l-32 -33l-112 98l-111 -98l-32 33l122 143h42zM635 266q0 -165 -81 -226q-69 -54 -180 -54q-107 0 -178 54q-81 61 -81 226v404l-62 8v52h109q33 0 33 -31v-430q0 -220 179 -220q181 0 181 220v430q0 31 33 31h109v-52l-62 -8v-404z"/>
<glyph glyph-name="Udieresis" horiz-adv-x="750" unicode="Ü" d="M427 874q0 20 15 35t35 15t35 -15t15 -35t-15 -35t-35 -15t-35 15t-15 35zM222 874q0 20 15 35t35 15t35 -15t15 -35t-15 -35t-35 -15t-35 15t-15 35zM635 266q0 -165 -81 -226q-69 -54 -180 -54q-107 0 -178 54q-81 61 -81 226v404l-62 8v52h109q33 0 33 -31v-430 q0 -220 179 -220q181 0 181 220v430q0 31 33 31h109v-52l-62 -8v-404z"/>
<glyph glyph-name="Yacute" horiz-adv-x="548" unicode="Ý" d="M409 900l-202 -105l-28 46l192 126zM405 0h-260v52l90 7v200l-183 411l-55 8v52h92q27 0 37 -23l149 -360l147 360q10 23 37 23h91v-52l-55 -8l-180 -408v-203l90 -7v-52z"/>
<glyph glyph-name="Thorn" horiz-adv-x="627" unicode="Þ" d="M216 574h112q114 0 174 -54t61 -154t-59 -152q-60 -53 -176 -53h-49v54h49q156 0 156 151q0 154 -156 154h-112v-461l63 -8v-51h-206v52l63 7v611l-62 8v52h204v-52l-62 -8v-96z"/>
<glyph glyph-name="germandbls" horiz-adv-x="668" unicode="ß" d="M120 484q0 130 60 196t166 65q106 0 166 -53t59 -144q-1 -60 -31 -106t-91 -62q83 -10 132 -58t49 -140t-51 -144t-149 -52q-79 0 -128 53t-49 140h65q0 -59 30 -95t86 -37q54 0 86 37q32 36 31 106q0 70 -42 112t-127 42h-95v55h65q66 0 104 37t38 106q0 70 -39 106 t-107 36q-148 0 -148 -199v-454q0 -31 -34 -31h-109v52l63 7v425z"/>
<glyph glyph-name="agrave" horiz-adv-x="612" unicode="à" d="M385 637l-203 105l39 67l191 -126zM403 283q-276 0 -276 -138q-1 -45 25 -71t72 -26q72 0 124 58t55 165v12zM403 99v14q-65 -127 -204 -127q-67 0 -107 41t-40 112q0 97 80 146t271 49v42q0 86 -31 118q-30 32 -100 32t-156 -48l-26 60q103 48 196 48q145 0 181 -102 q15 -42 15 -102v-274q0 -55 42 -55q14 0 41 6l9 -60q-39 -13 -76 -13q-95 0 -95 113z"/>
<glyph glyph-name="aacute" horiz-adv-x="612" unicode="á" d="M413 742l-202 -105l-28 46l192 126zM403 283q-276 0 -276 -138q-1 -45 25 -71t72 -26q72 0 124 58t55 165v12zM403 99v14q-65 -127 -204 -127q-67 0 -107 41t-40 112q0 97 80 146t271 49v42q0 86 -31 118q-30 32 -100 32t-156 -48l-26 60q103 48 196 48q145 0 181 -102 q15 -42 15 -102v-274q0 -55 42 -55q14 0 41 6l9 -60q-39 -13 -76 -13q-95 0 -95 113z"/>
<glyph glyph-name="acircumflex" horiz-adv-x="612" unicode="â" d="M434 667l-32 -33l-112 98l-111 -98l-32 33l122 143h42zM403 283q-276 0 -276 -138q-1 -45 25 -71t72 -26q72 0 124 58t55 165v12zM403 99v14q-65 -127 -204 -127q-67 0 -107 41t-40 112q0 97 80 146t271 49v42q0 86 -31 118q-30 32 -100 32t-156 -48l-26 60 q103 48 196 48q145 0 181 -102q15 -42 15 -102v-274q0 -55 42 -55q14 0 41 6l9 -60q-39 -13 -76 -13q-95 0 -95 113z"/>
<glyph glyph-name="atilde" horiz-adv-x="612" unicode="ã" d="M361 676q-25 0 -73 18t-61 18q-35 0 -47 -43l-47 14q26 95 86 95q25 0 73 -18t62 -18q33 0 46 44l47 -15q-24 -95 -86 -95zM403 283q-276 0 -276 -138q-1 -45 25 -71t72 -26q72 0 124 58t55 165v12zM403 99v14q-65 -127 -204 -127q-67 0 -107 41t-40 112q0 97 80 146 t271 49v42q0 86 -31 118q-30 32 -100 32t-156 -48l-26 60q103 48 196 48q145 0 181 -102q15 -42 15 -102v-274q0 -55 42 -55q14 0 41 6l9 -60q-39 -13 -76 -13q-95 0 -95 113z"/>
<glyph glyph-name="adieresis" horiz-adv-x="612" unicode="ä" d="M350 716q0 20 15 35t35 15t35 -15t15 -35t-15 -35t-35 -15t-35 15t-15 35zM145 716q0 20 15 35t35 15t35 -15t15 -35t-15 -35t-35 -15t-35 15t-15 35zM403 283q-276 0 -276 -138q-1 -45 25 -71t72 -26q72 0 124 58t55 165v12zM403 99v14q-65 -127 -204 -127 q-67 0 -107 41t-40 112q0 97 80 146t271 49v42q0 86 -31 118q-30 32 -100 32t-156 -48l-26 60q103 48 196 48q145 0 181 -102q15 -42 15 -102v-274q0 -55 42 -55q14 0 41 6l9 -60q-39 -13 -76 -13q-95 0 -95 113z"/>
<glyph glyph-name="aring" horiz-adv-x="612" unicode="å" d="M335 769q-15 18 -39 18t-38 -17q-14 -18 -13 -44t15 -44t38 -19q24 0 38 17t14 44t-15 45zM216 804q28 30 80 29q52 1 82 -31q32 -32 32 -79t-30 -76t-80 -29q-52 0 -82 31t-31 78q1 47 29 77zM403 283q-276 0 -276 -138q-1 -45 25 -71t72 -26q72 0 124 58t55 165v12z M403 99v14q-65 -127 -204 -127q-67 0 -107 41t-40 112q0 97 80 146t271 49v42q0 86 -31 118q-30 32 -100 32t-156 -48l-26 60q103 48 196 48q145 0 181 -102q15 -42 15 -102v-274q0 -55 42 -55q14 0 41 6l9 -60q-39 -13 -76 -13q-95 0 -95 113z"/>
<glyph glyph-name="ae" horiz-adv-x="933" unicode="æ" d="M403 268q-140 0 -208 -28t-68 -99q0 -45 27 -69t76 -24q74 0 124 54t49 166zM757 470q-40 54 -115 55q-75 0 -113 -57t-45 -143h313q0 91 -40 145zM876 269h-394q0 -111 56 -173q44 -49 120 -49t165 45l25 -58q-101 -48 -191 -48q-167 0 -228 152q-27 -80 -86 -116 t-133 -36t-116 40t-42 110q0 94 74 142t255 47h22v51q0 86 -31 118q-30 32 -100 32t-156 -48l-26 60q103 48 196 48q134 0 175 -90q64 90 187 90q108 0 168 -73t60 -195v-49z"/>
<glyph glyph-name="ccedilla" horiz-adv-x="541" unicode="ç" d="M375 -86q29 -20 29 -62q0 -43 -28 -68t-74 -25q-44 0 -70 26t-26 69h52q-1 -20 11 -34q13 -14 35 -14t36 14t14 37q0 41 -53 51l-49 10l16 70q-72 8 -120 56t-68 111q-18 62 -18 120q0 57 7 97t25 80t45 69t71 47t100 18q91 0 181 -46l-26 -58q-76 43 -155 43 q-50 1 -85 -21t-53 -58t-24 -75q-8 -38 -8 -81t7 -82t23 -77t49 -61t79 -23q102 0 141 104l64 -21q-54 -143 -204 -144l-9 -43q56 -9 85 -29z"/>
<glyph glyph-name="egrave" horiz-adv-x="591" unicode="è" d="M384 637l-203 105l39 67l191 -126zM415 470q-40 54 -115 55q-75 0 -113 -57t-45 -143h313q0 91 -40 145zM534 269h-394q0 -111 56 -173q44 -49 120 -49t165 45l25 -58q-102 -48 -180 -48t-128 26t-80 68q-56 87 -56 197q0 128 54 215q28 44 76 69t114 25q108 0 168 -73 t60 -195v-49z"/>
<glyph glyph-name="eacute" horiz-adv-x="591" unicode="é" d="M412 742l-202 -105l-28 46l192 126zM415 470q-40 54 -115 55q-75 0 -113 -57t-45 -143h313q0 91 -40 145zM534 269h-394q0 -111 56 -173q44 -49 120 -49t165 45l25 -58q-102 -48 -180 -48t-128 26t-80 68q-56 87 -56 197q0 128 54 215q28 44 76 69t114 25q108 0 168 -73 t60 -195v-49z"/>
<glyph glyph-name="ecircumflex" horiz-adv-x="591" unicode="ê" d="M450 667l-32 -33l-112 98l-111 -98l-32 33l122 143h42zM415 470q-40 54 -115 55q-75 0 -113 -57t-45 -143h313q0 91 -40 145zM534 269h-394q0 -111 56 -173q44 -49 120 -49t165 45l25 -58q-102 -48 -180 -48t-128 26t-80 68q-56 87 -56 197q0 128 54 215q28 44 76 69 t114 25q108 0 168 -73t60 -195v-49z"/>
<glyph glyph-name="edieresis" horiz-adv-x="591" unicode="ë" d="M347 716q0 20 15 35t35 15t35 -15t15 -35t-15 -35t-35 -15t-35 15t-15 35zM142 716q0 20 15 35t35 15t35 -15t15 -35t-15 -35t-35 -15t-35 15t-15 35zM415 470q-40 54 -115 55q-75 0 -113 -57t-45 -143h313q0 91 -40 145zM534 269h-394q0 -111 56 -173q44 -49 120 -49 t165 45l25 -58q-102 -48 -180 -48t-128 26t-80 68q-56 87 -56 197q0 128 54 215q28 44 76 69t114 25q108 0 168 -73t60 -195v-49z"/>
<glyph glyph-name="igrave" horiz-adv-x="337" unicode="ì" d="M256 637l-203 105l39 67l191 -126zM200 541v-433q0 -55 44 -55q25 0 41 6l10 -60q-41 -13 -84 -13q-89 0 -89 113v413l-60 8v52h108q30 0 30 -31z"/>
<glyph glyph-name="iacute" horiz-adv-x="337" unicode="í" d="M284 742l-202 -105l-28 46l192 126zM200 541v-433q0 -55 44 -55q25 0 41 6l10 -60q-41 -13 -84 -13q-89 0 -89 113v413l-60 8v52h108q30 0 30 -31z"/>
<glyph glyph-name="icircumflex" horiz-adv-x="337" unicode="î" d="M290 667l-32 -33l-112 98l-111 -98l-32 33l122 143h42zM200 541v-433q0 -55 44 -55q25 0 41 6l10 -60q-41 -13 -84 -13q-89 0 -89 113v413l-60 8v52h108q30 0 30 -31z"/>
<glyph glyph-name="idieresis" horiz-adv-x="337" unicode="ï" d="M201 716q0 20 15 35t35 15t35 -15t15 -35t-15 -35t-35 -15t-35 15t-15 35zM-4 716q0 20 15 35t35 15t35 -15t15 -35t-15 -35t-35 -15t-35 15t-15 35zM200 541v-433q0 -55 44 -55q25 0 41 6l10 -60q-41 -13 -84 -13q-89 0 -89 113v413l-60 8v52h108q30 0 30 -31z"/>
<glyph glyph-name="eth" horiz-adv-x="631" unicode="ð" d="M434 450q-48 60 -128 60t-122 -58q-44 -58 -44 -165q0 -108 48 -174t126 -66q79 0 123 61t44 171q1 111 -47 171zM560 286q0 -146 -64 -223t-180 -77t-186 82q-68 82 -68 220q0 137 64 210t184 73q81 0 139 -58q-30 95 -84 174l-107 -43v56l75 30q-24 30 -53 59l43 45 q38 -38 71 -80l116 47v-56l-85 -34q135 -197 135 -425z"/>
<glyph glyph-name="ntilde" horiz-adv-x="713" unicode="ñ" d="M426 676q-24 0 -72 18t-62 18q-35 0 -47 -43l-47 14q26 95 86 95q24 0 72 -18t63 -18q33 0 46 44l47 -15q-24 -95 -86 -95zM500 99v308q0 63 -22 91t-78 27q-95 0 -185 -74v-392l70 -7v-52h-219v52l70 7v453l-70 8v52h106q31 0 31 -30v-39q105 83 212 83q86 0 125 -44 t39 -135v-299q0 -55 43 -55q18 0 42 6l9 -60q-39 -13 -77 -13q-96 0 -96 113z"/>
<glyph glyph-name="ograve" horiz-adv-x="621" unicode="ò" d="M396 637l-203 105l39 67l191 -126zM434 460q-47 66 -127 65q-79 0 -123 -61t-44 -173t48 -178t126 -66q79 0 123 61q44 62 44 174t-47 178zM126 509q64 77 180 77t185 -82t69 -224q0 -140 -64 -217t-180 -77t-186 82q-68 82 -68 224q0 140 64 217z"/>
<glyph glyph-name="oacute" horiz-adv-x="621" unicode="ó" d="M424 742l-202 -105l-28 46l192 126zM434 460q-47 66 -127 65q-79 0 -123 -61t-44 -173t48 -178t126 -66q79 0 123 61q44 62 44 174t-47 178zM126 509q64 77 180 77t185 -82t69 -224q0 -140 -64 -217t-180 -77t-186 82q-68 82 -68 224q0 140 64 217z"/>
<glyph glyph-name="ocircumflex" horiz-adv-x="621" unicode="ô" d="M450 667l-32 -33l-112 98l-111 -98l-32 33l122 143h42zM434 460q-47 66 -127 65q-79 0 -123 -61t-44 -173t48 -178t126 -66q79 0 123 61q44 62 44 174t-47 178zM126 509q64 77 180 77t185 -82t69 -224q0 -140 -64 -217t-180 -77t-186 82q-68 82 -68 224q0 140 64 217z "/>
<glyph glyph-name="otilde" horiz-adv-x="621" unicode="õ" d="M377 676q-25 0 -73 18t-61 18q-35 0 -47 -43l-47 14q26 95 86 95q25 0 73 -18t62 -18q33 0 46 44l47 -15q-24 -95 -86 -95zM434 460q-47 66 -127 65q-79 0 -123 -61t-44 -173t48 -178t126 -66q79 0 123 61q44 62 44 174t-47 178zM126 509q64 77 180 77t185 -82t69 -224 q0 -140 -64 -217t-180 -77t-186 82q-68 82 -68 224q0 140 64 217z"/>
<glyph glyph-name="odieresis" horiz-adv-x="621" unicode="ö" d="M362 716q0 20 15 35t35 15t35 -15t15 -35t-15 -35t-35 -15t-35 15t-15 35zM157 716q0 20 15 35t35 15t35 -15t15 -35t-15 -35t-35 -15t-35 15t-15 35zM434 460q-47 66 -127 65q-79 0 -123 -61t-44 -173t48 -178t126 -66q79 0 123 61q44 62 44 174t-47 178zM126 509 q64 77 180 77t185 -82t69 -224q0 -140 -64 -217t-180 -77t-186 82q-68 82 -68 224q0 140 64 217z"/>
<glyph glyph-name="divide" d="M254 506q-16 16 -17 38q1 22 17 40q16 16 38 16t38 -16t17 -39q-1 -23 -17 -39t-38 -16t-38 16zM254 146q-16 16 -17 38q1 22 17 40q16 16 38 16t38 -16t17 -39q-1 -23 -17 -39t-38 -16t-38 16zM489 333h-394v64h394v-64z" unicode="÷"/>
<glyph glyph-name="oslash" horiz-adv-x="621" unicode="ø" d="M310 525q-82 0 -126 -61t-44 -178q0 -147 82 -210l121 445q-22 4 -33 4zM481 286q0 148 -83 210l-121 -445q15 -4 33 -4q83 0 127 61t44 178zM62 286q0 146 64 223t184 77q23 0 50 -5l39 144h62l-45 -163q68 -33 106 -105t38 -171q0 -146 -64 -223t-186 -77q-24 0 -49 5 l-40 -147h-62l45 166q-66 33 -104 105t-38 171z"/>
<glyph glyph-name="ugrave" horiz-adv-x="701" unicode="ù" d="M426 637l-203 105l39 67l191 -126zM564 541v-433q0 -55 44 -55q25 0 41 6l10 -60q-41 -13 -77 -13q-81 0 -94 77q-104 -77 -198 -77t-134 44q-39 44 -39 135v347l-70 8v52h115q34 0 34 -31v-376q0 -63 22 -91t78 -28q95 0 190 78v388l-60 8v52h108q30 0 30 -31z"/>
<glyph glyph-name="uacute" horiz-adv-x="701" unicode="ú" d="M454 742l-202 -105l-28 46l192 126zM564 541v-433q0 -55 44 -55q25 0 41 6l10 -60q-41 -13 -77 -13q-81 0 -94 77q-104 -77 -198 -77t-134 44q-39 44 -39 135v347l-70 8v52h115q34 0 34 -31v-376q0 -63 22 -91t78 -28q95 0 190 78v388l-60 8v52h108q30 0 30 -31z"/>
<glyph glyph-name="ucircumflex" horiz-adv-x="701" unicode="û" d="M480 667l-32 -33l-112 98l-111 -98l-32 33l122 143h42zM564 541v-433q0 -55 44 -55q25 0 41 6l10 -60q-41 -13 -77 -13q-81 0 -94 77q-104 -77 -198 -77t-134 44q-39 44 -39 135v347l-70 8v52h115q34 0 34 -31v-376q0 -63 22 -91t78 -28q95 0 190 78v388l-60 8v52h108 q30 0 30 -31z"/>
<glyph glyph-name="udieresis" horiz-adv-x="701" unicode="ü" d="M376 716q0 20 15 35t35 15t35 -15t15 -35t-15 -35t-35 -15t-35 15t-15 35zM171 716q0 20 15 35t35 15t35 -15t15 -35t-15 -35t-35 -15t-35 15t-15 35zM564 541v-433q0 -55 44 -55q25 0 41 6l10 -60q-41 -13 -77 -13q-81 0 -94 77q-104 -77 -198 -77t-134 44 q-39 44 -39 135v347l-70 8v52h115q34 0 34 -31v-376q0 -63 22 -91t78 -28q95 0 190 78v388l-60 8v52h108q30 0 30 -31z"/>
<glyph glyph-name="yacute" horiz-adv-x="569" unicode="ý" d="M431 742l-202 -105l-28 46l192 126zM228 -212q-34 -30 -90 -30t-102 27l22 58q37 -21 74 -21q59 0 82 63l32 91l-227 596h80l182 -490l152 464q9 26 37 26h80v-53l-49 -8l-212 -617q-27 -76 -61 -106z"/>
<glyph glyph-name="thorn" horiz-adv-x="650" unicode="þ" d="M52 770h106q31 0 31 -30v-261q81 107 187 107q53 0 94 -27t64 -71q45 -88 45 -202q0 -116 -43 -201q-24 -47 -71 -73t-119 -26t-145 36v-249l-79 -6v943l-70 8v52zM339 47q161 0 161 239q0 96 -30 163q-16 37 -48 57t-74 20q-78 0 -147 -92v-353q62 -34 138 -34z"/>
</font>
</defs>
</svg>
